<?xml version="1.0" encoding="UTF-8" standalone="no"?>
<!-- Created with Inkscape (http://www.inkscape.org/) -->
<svg
   xmlns:dc="http://purl.org/dc/elements/1.1/"
   xmlns:cc="http://web.resource.org/cc/"
   xmlns:rdf="http://www.w3.org/1999/02/22-rdf-syntax-ns#"
   xmlns:svg="http://www.w3.org/2000/svg"
   xmlns="http://www.w3.org/2000/svg"
   xmlns:sodipodi="http://inkscape.sourceforge.net/DTD/sodipodi-0.dtd"
   xmlns:inkscape="http://www.inkscape.org/namespaces/inkscape"
   id="svg2"
   sodipodi:version="0.32"
   inkscape:version="0.43"
   width="572pt"
   height="526pt"
   sodipodi:docbase="C:\Documents and Settings\Owner\Desktop\SVG"
   sodipodi:docname="Nuvola shopping basket.svg"
   version="1.0">
  <metadata
     id="metadata7">
    <rdf:RDF>
      <cc:Work
         rdf:about="">
        <dc:format>image/svg+xml</dc:format>
        <dc:type
           rdf:resource="http://purl.org/dc/dcmitype/StillImage" />
      </cc:Work>
    </rdf:RDF>
  </metadata>
  <defs
     id="defs5" />
  <sodipodi:namedview
     inkscape:window-height="704"
     inkscape:window-width="1280"
     inkscape:pageshadow="2"
     inkscape:pageopacity="0.0"
     borderopacity="1.0"
     bordercolor="#666666"
     pagecolor="#ffffff"
     id="base"
     inkscape:zoom="0.44891697"
     inkscape:cx="-168.68202"
     inkscape:cy="310.74874"
     inkscape:window-x="-4"
     inkscape:window-y="-4"
     inkscape:current-layer="svg2" />
  <g
     id="g4857"
     transform="translate(-11.13792,-24.50342)">
    <path
       sodipodi:nodetypes="cccsssssscccccssssssssssscccsssccsssccsssccsssccsssccsssccsssccsssccsssccssccsssccsssccsssccssssccsssccssssccsssc"
       style="fill:#48a5f8;stroke:#000000;stroke-opacity:1"
       d="M 90.1461,563.39676 L 60.1481,467.49497 L 47.082,466.42372 C 27.8226,464.84469 26.4553,463.02841 27.0048,439.75296 C 27.7175,409.56603 27.4118,407.61749 20.6234,399.07538 C 15.2825,392.35469 14.6335,390.27066 16.4189,385.57455 C 23.5659,366.77646 73.4746,294.92066 87.7907,282.81734 C 99.7443,272.71133 109.7649,269.89791 142.6344,267.41921 C 159.72079,266.13073 205.03479,264.45041 243.33199,263.68519 C 281.62919,262.91995 320.67629,261.22193 330.10329,259.91184 L 347.24329,257.5298 C 347.24329,257.5298 423.30209,249.03041 423.30209,252.46609 L 423.30209,258.71279 L 514.89409,258.30623 C 626.78319,257.80959 615.78559,254.9477 654.70219,294.68815 C 684.05799,324.66537 718.42599,366.0994 720.38819,373.87913 C 721.25609,377.32026 720.09539,380.45607 716.56139,384.21783 C 711.88709,389.19339 711.48119,391.43725 711.39029,412.80024 C 711.32269,428.70155 710.40529,437.05133 708.46959,439.38374 C 706.91739,441.25401 699.88929,443.97356 692.85169,445.42716 C 685.29289,446.9884 679.28429,449.51199 678.17039,451.59323 C 677.13339,453.53098 665.72189,497.33462 652.81149,548.93463 C 638.34219,606.76567 627.78509,644.83298 625.28939,648.17571 C 614.89859,662.09306 608.33159,662.82404 439.37089,668.87013 C 292.7977,674.11512 193.19496,678.45469 151.0948,674.90232 C 120.7697,672.34353 130.5198,662.76422 125.8076,660.26016 C 121.7017,658.07826 92.1524,569.87782 90.1461,563.39676 z M 174.71819,366.56405 C 173.37149,349.01675 171.47039,333.82795 170.49369,332.81116 C 165.81289,327.93847 165.12879,335.51444 167.60379,364.81838 C 170.50169,399.12941 171.52489,404.11019 174.96839,400.66672 C 176.47129,399.16375 176.39219,388.37502 174.71819,366.56405 z M 195.24559,371.14238 C 193.62499,340.56186 191.79079,329.69691 188.54409,331.44611 C 186.52059,332.5363 186.80989,371.29759 188.97989,389.82928 C 189.82569,397.05221 191.12989,400.00616 193.47339,400.00616 C 196.35979,400.00616 196.58269,396.37462 195.24559,371.14238 z M 216.25339,396.79468 C 218.03989,392.13907 213.37269,332.89401 211.02939,330.48199 C 206.17079,325.48094 205.02879,333.27037 206.96089,358.23237 C 208.05519,372.37014 208.97329,387.55287 209.00119,391.97178 C 209.05339,400.22639 213.74039,403.34341 216.25339,396.79468 z M 235.42459,367.33301 C 234.30449,330.48535 234.11159,329.30361 229.21609,329.30361 C 226.04919,329.30361 225.82379,331.94358 227.06639,354.478 C 229.05399,390.51979 230.42539,400.00616 233.64839,400.00616 C 235.83479,400.00616 236.20869,393.12927 235.42459,367.33301 z M 255.14519,365.19051 C 253.73199,333.02936 252.11519,324.09122 248.38569,327.82074 C 246.75619,329.45022 246.96729,348.20455 248.96289,379.11677 C 250.02439,395.55822 250.98899,400.00616 253.49329,400.00616 C 256.23959,400.00616 256.46569,395.24092 255.14519,365.19051 z M 275.76979,366.23807 C 275.00279,336.52658 273.32279,327.16111 268.75999,327.16111 C 266.86019,327.16111 266.58409,335.76225 267.65219,361.67237 C 269.12899,397.49425 269.94719,402.10044 274.09689,397.95078 C 275.74779,396.29985 276.28359,386.14356 275.76979,366.23807 z M 295.20489,364.47316 C 294.54469,330.35862 293.69269,324.29178 289.74959,325.62982 C 287.96639,326.23493 287.44229,334.9903 287.91489,356.27841 C 288.66389,390.01954 289.78019,398.45109 293.34029,397.2598 C 295.11209,396.66693 295.64619,387.27591 295.20489,364.47316 z M 315.49409,363.46419 C 314.11439,328.42049 313.17199,322.88161 309.25559,326.79802 C 307.85999,328.19364 307.65409,341.06961 308.67029,363.40722 C 309.98699,392.35379 310.76619,397.86366 313.54299,397.86366 C 316.44079,397.86366 316.68139,393.62196 315.49409,363.46419 z M 335.59159,359.29863 C 334.59309,331.74283 333.84129,326.08986 331.17459,326.08986 C 328.43359,326.08986 328.03769,330.97568 328.48359,359.29863 C 329.06079,395.95647 329.74469,400.40186 334.06339,395.56592 C 336.14299,393.23723 336.50769,384.58315 335.59159,359.29863 z M 414.25229,359.65821 C 414.86259,326.12262 412.73739,318.13773 408.48219,337.97907 C 404.32259,357.3746 406.21619,394.62909 411.27619,392.94771 C 412.85209,392.42407 413.86149,381.1339 414.25229,359.65821 z M 434.01459,358.22738 C 434.01459,328.23236 433.52769,322.8761 430.80089,322.8761 C 428.07409,322.8761 427.58709,328.23236 427.58709,358.22738 C 427.58709,388.22241 428.07409,393.57866 430.80089,393.57866 C 433.52769,393.57866 434.01459,388.22241 434.01459,358.22738 z M 454.36079,365.19051 C 456.14219,331.53627 455.55229,323.94736 451.15469,323.94736 C 448.46779,323.94736 447.84329,329.20071 447.34549,355.99076 C 447.01799,373.61461 447.22879,389.28166 447.81389,390.80641 C 450.91089,398.87707 453.01309,390.6517 454.36079,365.19051 z M 473.65089,358.04885 C 473.65089,329.16475 473.15919,323.94736 470.43719,323.94736 C 467.76289,323.94736 467.11999,328.98226 466.60739,353.94238 C 465.94969,385.97049 466.90819,394.39789 471.05179,393.0167 C 472.94379,392.38604 473.65089,382.87264 473.65089,358.04885 z M 494.00469,360.19696 C 495.16739,325.50249 494.93869,322.8761 490.75399,322.8761 C 488.61209,322.8761 487.77189,330.73491 487.14639,356.62051 C 486.69789,375.17993 486.69979,391.13889 487.15039,392.08489 C 487.60109,393.03086 489.08669,393.43511 490.45169,392.98319 C 492.11869,392.43131 493.28509,381.66753 494.00469,360.19696 z M 513.70149,356.08488 C 514.26219,328.65456 513.88769,323.94736 511.14469,323.94736 C 508.46379,323.94736 507.83189,329.08195 507.33379,354.9151 C 507.00539,371.94736 507.27809,387.29357 507.93969,389.01777 C 511.06629,397.16551 513.09929,385.54526 513.70149,356.08488 z M 532.83919,375.19921 C 533.57659,367.04309 534.29969,351.86308 534.44609,341.46591 C 534.67999,324.8495 534.27759,322.64574 531.12099,323.25464 C 527.97289,323.86187 527.45429,328.13063 526.91879,357.8427 C 526.45369,383.64523 526.92749,391.53394 528.90319,390.88329 C 530.41579,390.38511 532.05779,383.84225 532.83919,375.19921 z M 552.63229,379.35337 C 553.38159,373.8862 553.99469,358.86191 553.99469,345.96606 C 553.99469,328.16592 553.34969,322.73164 551.31659,323.40185 C 547.03999,324.81162 542.94469,383.95696 546.85309,387.86531 C 549.93369,390.946 551.32399,388.89834 552.63229,379.35337 z "
       id="path3076" />
    <path
       sodipodi:nodetypes="cssssssssssssssssssssssscccssssssssssssssssssssssscccssssssssssssssssscccsssssssccccsssccssccssccsssssccsssccssccssccsssccsssccssccssccssccsssssssssssssscccscccsssssssssssssssssssssssssssscccscccscccssscccccssssssssssssssssssssscccsssssssssssssssssssssssssssssssssssssssssssssssssssssssssssssssssssssssssssssssscccsssssssssssssssssssssssssssssssssssssssccsssssccssccssccssssccssccssccsssccsssccssssccssccsssccsssccssccssccsssccsssccssccssccssccssssscccssccssssccsssssssssssccssscccccsccsssssssccsssssssccsssssscccccscccccccsscccscccsccssc"
       style="fill:#4a94ef"
       d="M 130.0087,666.20676 C 125.6491,662.37901 119.9608,654.42498 117.368,648.53113 C 111.9037,636.10995 90.9544,566.27357 76.8768,513.54996 C 71.5281,493.51757 66.327,474.23506 65.319,470.69993 C 63.5988,464.66703 62.9185,464.31648 54.238,464.99006 C 41.0479,466.01357 28.5759,459.75982 28.5431,452.10608 C 28.5296,448.9497 29.9515,444.93429 31.7028,443.18292 C 34.3521,440.53361 34.5358,437.22793 32.7962,423.507 C 31.6462,414.43662 31.2115,406.19628 31.8302,405.19513 C 32.449,404.19398 35.4885,404.338 38.5846,405.51515 C 45.0601,407.9771 71.5487,408.68057 94.9361,407.01171 C 103.7739,406.38107 116.5985,406.8494 123.4353,408.05245 C 132.108,409.5786 144.4136,409.5064 164.14267,407.81363 C 182.29013,406.25654 197.60053,406.07447 206.88213,407.30538 C 215.76543,408.48346 227.74963,408.41784 237.94843,407.13525 C 247.08053,405.9868 259.69513,405.6777 265.98083,406.44836 C 285.50573,408.8422 280.93883,409.53879 223.48603,412.93007 C 205.29603,414.00379 202.62253,414.69935 198.33763,419.4731 C 194.45233,423.80153 192.75193,424.39139 189.37283,422.58292 C 183.16563,419.26093 180.63593,419.85541 180.63593,424.63614 C 180.63593,430.00618 179.57853,430.00618 174.20843,424.63614 C 166.86697,417.29465 154.92597,420.13854 154.92597,429.22851 C 154.92597,431.28298 152.0639,434.65461 148.5657,436.72103 C 140.8022,441.30704 139.1965,444.94697 142.5603,450.33348 C 146.1239,456.03973 159.89037,457.4384 214.67003,457.65977 L 260.48783,457.84492 L 260.92503,466.41493 C 261.86413,484.82778 266.36983,539.62689 267.48453,546.1931 C 269.13373,555.9081 265.33143,562.18197 258.29913,561.34903 C 251.26863,560.5163 249.45243,554.63357 248.24193,528.77332 C 247.75143,518.29216 246.19423,499.25067 244.78163,486.45891 C 242.48493,465.6604 241.76923,463.20117 238.01363,463.20117 C 234.05713,463.20117 233.89373,464.28714 235.19353,481.94806 C 235.95233,492.25885 237.44973,507.44383 238.52103,515.69247 C 244.17923,559.25777 242.82833,567.00739 230.34123,562.61593 C 225.50443,560.91493 224.35123,558.91135 223.03833,549.92797 C 222.18083,544.06058 221.35823,533.47523 221.21023,526.40497 C 221.06233,519.33472 220.11943,509.2114 219.11513,503.90871 C 218.11073,498.60601 216.67833,487.7596 215.93193,479.80556 C 214.89233,468.72609 213.79493,465.34368 211.23983,465.34368 C 208.35813,465.34368 208.09993,468.03821 209.34113,485.16182 C 210.86293,506.15726 213.47823,529.11254 216.03893,543.95121 C 216.89093,548.88813 216.96843,555.39598 216.21123,558.41309 C 215.07353,562.94592 213.57603,563.89875 207.59013,563.89875 C 200.69543,563.89875 200.23613,563.40767 198.07123,553.72187 C 196.82023,548.12458 194.24513,527.63691 192.34893,508.19371 C 189.13493,475.23946 187.14543,466.69 183.53203,470.30344 C 181.85623,471.97922 186.33843,522.64105 189.15893,533.90373 C 190.19173,538.02805 191.34803,546.70518 191.72833,553.18624 C 192.40063,564.64413 192.27163,564.95336 187.06353,564.36794 C 174.88923,562.99948 171.93673,561.43344 168.92937,554.74937 L 165.81617,547.82999 L 166.96527,554.2575 C 169.32627,567.46364 171.74057,569.96216 180.94773,568.72722 C 188.81493,567.672 189.52123,568.0328 191.89403,574.319 C 194.92493,582.34893 196.86363,582.82306 198.58723,575.95587 C 199.48033,572.39739 201.89083,570.46741 206.62493,569.52059 C 215.27713,567.79016 218.43343,570.5208 218.79153,580.04636 C 218.94933,584.24328 219.58473,588.49632 220.20353,589.49753 C 220.82233,590.49875 221.90283,599.83988 222.60473,610.25563 C 223.30663,620.6714 224.75623,630.82883 225.82593,632.82775 C 226.89573,634.82663 227.77103,640.33676 227.77103,645.07244 C 227.77103,652.97262 228.43373,653.971 235.80543,657.17717 C 240.22433,659.09908 245.28593,661.34155 247.05353,662.16041 C 248.82113,662.97928 252.23813,663.33924 254.64703,662.96032 C 258.28813,662.38754 258.88093,661.02206 258.16203,654.86382 C 257.41713,648.48328 257.92383,647.45632 261.81663,647.45632 C 267.73583,647.45632 267.58353,644.73474 261.51543,642.07249 C 257.83533,640.45796 256.56913,637.92986 256.16373,631.38756 C 255.87163,626.67405 255.16773,615.58661 254.59943,606.74879 C 254.03103,597.91097 253.30593,586.34146 252.98793,581.03877 L 252.40983,571.39751 L 260.37193,570.73685 C 267.21833,570.16878 268.47873,570.76926 269.36613,575.02185 C 270.89133,582.33121 272.60393,602.42704 274.14803,631.13245 C 275.35013,653.47921 276.00323,656.71441 279.49673,657.62797 C 284.07233,658.82452 284.70473,661.56238 280.79793,663.26151 C 279.32493,663.90214 280.77113,663.87797 284.01173,663.2078 C 287.41123,662.50474 289.90353,662.92184 289.90353,664.19384 C 289.90353,665.40633 287.25223,666.96939 284.01173,667.66733 C 275.26843,669.5504 198.76673,673.10378 166.24867,673.13722 L 137.9352,673.16634 L 130.0087,666.20676 z M 266.33603,658.16883 C 266.33603,656.99045 265.91093,656.02632 265.39123,656.02632 C 264.87163,656.02632 263.85053,656.99045 263.12233,658.16883 C 262.39403,659.3472 262.81913,660.31133 264.06713,660.31133 C 265.31503,660.31133 266.33603,659.3472 266.33603,658.16883 z M 202.02823,599.78566 C 202.01013,594.77756 201.16653,589.37194 200.15353,587.77316 C 197.00173,582.799 196.16863,587.74713 197.40953,604.07066 C 198.07273,612.79514 202.06173,609.09435 202.02823,599.78566 z M 172.00083,578.36064 C 171.94903,572.82193 171.51007,572.12684 169.85497,574.96276 C 168.71057,576.92364 168.36097,580.05705 169.07807,581.92589 C 171.09367,587.17851 172.07213,585.9849 172.00083,578.36064 z M 140.4478,568.93406 C 141.3406,568.3823 142.071,566.05135 142.071,563.75416 C 142.071,560.12872 141.5114,559.9269 137.8317,562.22501 C 134.5832,564.2537 132.0791,564.30144 127.1192,562.42928 C 120.2367,559.83143 119.0219,561.45817 122.0165,569.2621 C 123.1011,572.08834 124.9973,572.53128 131.1058,571.38532 C 135.3512,570.58889 139.5552,569.48582 140.4478,568.93406 z M 113.5543,524.49663 C 112.1445,504.59379 108.3645,491.0537 104.2179,491.0537 C 100.7174,491.0537 100.5905,498.04054 103.6866,520.3006 C 106.2247,538.54876 108.8846,545.51742 112.4668,543.30353 C 113.9908,542.36164 114.3634,535.91854 113.5543,524.49663 z M 172.06593,521.04872 C 172.06593,516.22888 168.52597,513.46799 167.24147,517.28599 C 165.90267,521.26507 167.97277,527.61062 170.16707,526.25444 C 171.21147,525.60895 172.06593,523.26638 172.06593,521.04872 z M 164.57907,512.45954 C 166.30347,509.66942 163.81277,501.7662 161.20907,501.7662 C 160.11017,501.7662 159.21097,504.65858 159.21097,508.19371 C 159.21097,514.5169 161.95827,516.70006 164.57907,512.45954 z M 139.0557,501.23058 C 138.3007,498.57923 137.1036,493.7586 136.3955,490.51807 C 134.9457,483.88373 131.3586,482.51167 131.3586,488.59149 C 131.3586,494.74923 135.8167,506.05121 138.2456,506.05121 C 139.4876,506.05121 139.8368,503.97356 139.0557,501.23058 z M 134.5724,478.19869 C 133.8441,477.02031 132.2841,476.05618 131.1057,476.05618 C 129.9273,476.05618 129.5591,477.02031 130.2874,478.19869 C 131.0156,479.37706 132.5756,480.34119 133.754,480.34119 C 134.9324,480.34119 135.3006,479.37706 134.5724,478.19869 z M 297.90703,667.60061 C 295.27933,664.97296 298.89313,660.82221 302.89693,661.86923 C 307.91803,663.18226 308.26673,665.81102 303.65463,667.58086 C 299.49453,669.17721 299.48363,669.17726 297.90703,667.60061 z M 312.42143,664.56139 C 313.16153,663.36379 314.66463,662.93861 315.76163,663.61659 C 318.73333,665.4532 318.17923,666.73883 314.41593,666.73883 C 312.57873,666.73883 311.68123,665.75898 312.42143,664.56139 z M 343.46613,665.91736 C 343.46613,664.09925 354.36073,663.15773 355.42743,664.88366 C 356.05803,665.90401 353.62473,666.73883 350.02003,666.73883 C 346.41543,666.73883 343.46613,666.36917 343.46613,665.91736 z M 378.81743,664.61163 C 370.49453,661.52137 389.67733,658.10412 402.10103,660.46385 C 408.14903,661.61262 415.98983,661.90734 419.52493,661.11879 C 423.06003,660.33027 429.72913,659.58498 434.34513,659.4626 C 445.40093,659.16948 446.16913,655.6338 436.20903,650.88413 C 428.93633,647.41604 428.52843,646.79388 431.90783,644.32282 C 435.26453,641.86833 435.30543,641.31426 432.31293,638.83067 C 430.16093,637.04472 429.71963,635.33334 431.06433,633.98866 C 432.40893,632.644 432.25173,630.46847 430.61953,627.83349 C 428.67553,624.69537 428.68483,623.39052 430.65993,622.15999 C 432.35403,621.10458 432.54593,619.48992 431.22523,617.40475 C 428.55033,613.18145 431.26183,567.57415 434.30883,565.53843 C 435.60473,564.67269 438.75383,563.94959 441.30703,563.93155 C 443.86013,563.91351 446.32733,562.76393 446.78973,561.37692 C 447.34373,559.71488 448.68293,559.53225 450.71763,560.8413 C 452.41563,561.93371 458.14353,562.8275 463.44623,562.8275 L 473.08743,562.8275 L 474.15873,587.46627 C 475.43503,616.82097 478.66303,615.83848 479.48473,585.84525 C 480.10963,563.03496 482.05033,559.61799 494.38633,559.60895 L 500.93993,559.60415 L 500.47053,580.49834 C 500.16163,594.2525 500.65923,599.92824 501.92683,597.10753 C 502.98603,594.75078 503.92033,585.93575 504.00313,577.51861 C 504.16823,560.74317 505.05063,559.61375 517.99283,559.61375 C 521.87653,559.61375 526.17033,558.26875 527.53463,556.62487 C 533.56583,549.35774 540.47843,459.27915 535.14353,457.47365 C 532.45583,456.56407 532.06733,458.90402 530.81213,483.55494 C 530.27223,494.16032 529.11483,513.43234 528.24023,526.38164 C 526.68473,549.41169 526.51893,549.98854 520.64703,552.79744 C 508.15373,558.77376 506.20353,548.15336 510.34873,496.71603 C 512.29633,472.54767 511.13913,454.63117 507.63053,454.63117 C 506.16553,454.63117 505.19863,459.02893 505.15753,465.8793 C 504.98603,494.51699 501.24403,550.2451 499.33123,552.65062 C 496.52253,556.18262 483.48363,556.10133 482.11833,552.5433 C 481.53043,551.01131 481.40763,545.94965 481.84553,541.29517 C 484.98263,507.94655 486.89713,470.11479 485.75563,464.03002 C 484.85533,459.23112 483.18533,456.77367 480.82433,456.77367 C 477.63643,456.77367 477.19243,461.18724 476.67523,498.01683 C 476.35673,520.70056 475.53863,542.46945 474.85723,546.39214 C 473.38133,554.88915 465.57373,559.76165 460.36333,555.43739 C 457.62643,553.16598 457.32783,546.09679 458.33613,507.45174 C 459.90203,447.43823 459.17233,451.8228 467.90433,449.95685 C 471.93963,449.09452 480.81003,449.51376 487.65373,450.89025 C 497.70073,452.91108 500.96333,452.83584 504.70843,450.49695 C 507.25553,448.9063 515.64463,447.33119 523.35103,446.99675 C 548.48733,445.90589 576.30993,439.95653 558.60903,439.45748 C 541.01733,438.96151 532.55233,434.90314 526.02143,423.83397 C 522.48883,417.84671 522.34563,416.37946 524.91583,412.50843 C 527.66023,408.37516 527.39903,407.96733 521.21583,406.73068 C 516.70643,405.82879 511.71773,406.77482 505.73163,409.667 L 496.90013,413.9339 L 491.02743,408.30748 C 485.91813,403.41244 484.09193,402.89374 476.97853,404.31719 C 472.48173,405.21709 456.75083,405.77557 442.02123,405.55828 L 415.23993,405.16323 L 415.18083,411.1503 C 415.14833,414.44319 414.41823,425.59099 413.55843,435.92314 C 412.00473,454.5944 412.02823,454.72398 417.41463,457.1782 L 422.83413,459.64747 L 422.65203,506.39823 C 422.50143,545.0448 421.90953,553.70929 419.23743,556.38136 C 415.48263,560.13624 414.25393,560.28373 409.88363,557.50411 C 407.34103,555.88695 406.63553,550.18912 406.50553,530.22002 C 406.41513,516.33798 406.15973,493.41045 405.93803,479.26994 L 405.53493,453.55992 L 398.26563,444.98991 L 390.99633,436.4199 L 385.84003,441.24053 C 376.02613,450.41552 360.72303,445.45723 360.52223,433.03745 C 360.44643,428.34529 360.14923,428.51523 357.41023,434.81708 C 354.61873,441.23965 353.70583,441.73076 345.73063,441.0999 C 338.64723,440.53957 336.83513,441.18457 335.73253,444.65859 C 333.18033,452.69972 330.12423,442.38859 330.01453,425.36663 C 329.95813,416.61768 329.34623,409.12827 328.65473,408.72344 C 327.96313,408.31864 317.91343,408.61357 306.32203,409.37885 C 294.73063,410.14413 284.79143,410.03358 284.23493,409.1332 C 283.67843,408.23281 286.59763,407.49613 290.72193,407.49613 C 294.84623,407.49613 298.89053,406.41228 299.70923,405.08755 C 300.71813,403.45516 305.71613,403.1419 315.21883,404.11548 C 324.02833,405.01805 333.05353,404.57453 339.50053,402.92221 C 347.31873,400.91846 353.98453,400.85058 367.50303,402.63711 C 377.26103,403.92666 386.20903,404.21262 387.38743,403.27257 C 392.10933,399.50569 409.26333,397.57538 421.69893,399.41155 C 442.38393,402.46579 518.34513,401.07426 523.81793,397.54083 C 525.37553,396.53518 539.18363,395.49658 554.50253,395.23282 C 569.82143,394.96907 591.03213,394.29723 601.63753,393.73984 C 612.24293,393.18246 631.78043,392.15687 645.05423,391.46075 C 675.32723,389.87316 684.08993,387.25776 666.61033,385.02695 C 659.92383,384.17359 653.37053,384.14443 652.04743,384.96213 C 650.72433,385.77986 628.59713,386.86348 602.87603,387.37016 L 556.11023,388.29143 L 556.37763,353.63825 C 556.57023,328.68444 555.93603,318.74234 554.11193,318.11786 C 548.68023,316.25834 546.49303,327.01109 546.21403,356.94573 C 545.94673,385.6202 545.71653,387.14237 541.64753,387.14237 C 537.55743,387.14237 537.35333,385.64716 537.16183,354.26705 C 537.00513,328.58604 536.30573,320.98665 533.96603,319.54061 C 532.25443,318.48279 530.13283,318.52749 529.01543,319.64489 C 527.93993,320.72036 526.80843,336.23983 526.50103,354.13261 C 526.09363,377.84854 525.19483,387.12677 523.18463,388.36914 C 521.66793,389.30649 519.65793,389.59804 518.71793,389.01705 C 517.77783,388.43607 517.00873,372.59161 517.00873,353.80714 C 517.00873,321.78692 516.75673,319.65356 512.97363,319.65356 C 507.28903,319.65356 506.35893,325.09149 506.32543,358.52499 C 506.30213,381.84559 505.67813,387.99234 503.23913,388.92829 C 497.05123,391.30283 496.15163,385.29367 498.23573,355.50415 C 499.37073,339.28151 499.75063,324.5786 499.08003,322.831 C 498.40943,321.0834 496.05043,319.65356 493.83793,319.65356 C 490.14353,319.65356 489.69523,322.30999 488.34693,352.18848 C 487.00083,382.01877 485.28053,390.35612 480.47133,390.35612 C 479.51833,390.35612 478.43123,374.97568 478.05553,356.17737 C 477.56223,331.49451 476.58833,321.22642 474.55013,319.21921 C 472.23293,316.93732 471.13783,317.20685 468.43223,320.72481 C 465.66343,324.32488 465.33683,330.19853 466.38883,357.47105 C 467.34013,382.13326 467.00833,390.16477 465.00793,390.89986 C 457.70823,393.58228 457.16453,390.60261 458.49523,355.20684 C 459.70243,323.09446 459.50633,320.24446 455.99793,318.89814 C 447.56603,315.66253 446.30623,320.5499 446.30623,356.49553 C 446.30623,387.89235 446.00143,390.61105 442.55683,389.94127 C 439.18313,389.28525 438.78833,385.7922 438.61683,355.08178 C 438.45523,326.1468 437.90013,320.61951 434.97023,318.77137 C 433.06943,317.57236 430.74483,317.35747 429.80453,318.2938 C 428.86423,319.23014 427.61283,336.06823 427.02363,355.7118 C 425.97653,390.62429 425.84523,391.4426 421.18553,392.10496 C 416.44533,392.77877 416.41533,392.58698 415.82933,357.82493 C 415.30233,326.5696 414.93623,323.54803 412.37283,329.29482 C 410.79593,332.82995 408.66513,348.16925 407.63773,363.38217 C 406.61033,378.59507 404.72443,392.08732 403.44683,393.36492 C 400.41453,396.3972 354.73763,397.78274 347.68283,395.0564 C 342.98783,393.24198 341.88193,390.84028 339.45883,377.19621 C 337.91903,368.52608 336.98563,352.75521 337.38453,342.14983 C 338.05993,324.1955 337.82133,322.86732 333.92073,322.86732 C 328.05153,322.86732 325.68893,335.46289 327.28983,358.21859 C 329.87803,395.00895 329.96083,393.56987 325.25483,393.56987 C 321.22253,393.56987 320.86493,391.54853 319.19083,359.28984 C 318.21233,340.43583 316.58983,324.15871 315.58543,323.11846 C 314.58093,322.07821 312.12553,321.85396 310.12893,322.62011 C 306.83513,323.88408 306.64253,327.18399 308.05003,358.24345 C 309.43863,388.88437 309.23283,392.61515 306.08753,393.82213 C 304.15493,394.56371 301.98523,394.58197 301.26593,393.86266 C 300.54663,393.14336 299.78763,382.17785 299.57923,369.49484 C 299.37083,356.81183 298.41483,340.84239 297.45483,334.00719 C 295.91413,323.03805 295.17993,321.65509 291.19953,322.22343 C 286.19973,322.93729 286.17973,323.27538 288.27143,371.67862 C 288.82053,384.38434 288.53523,395.23389 287.63753,395.78871 C 286.73973,396.34355 284.47203,396.20918 282.59813,395.49011 C 279.70373,394.37941 279.19103,389.57803 279.19103,363.58299 C 279.19103,337.07427 278.66453,332.3331 275.25303,328.12002 C 268.67203,319.99289 266.05033,324.48947 267.28503,341.78623 C 267.88803,350.23484 268.91653,364.5193 269.57043,373.52949 C 270.54673,386.98007 270.12743,390.54363 267.22783,393.44327 C 260.36223,400.30881 259.22693,396.18297 258.46903,361.61534 C 258.06073,342.98976 257.19653,326.89293 256.54863,325.84462 C 255.90073,324.7963 253.39823,323.93857 250.98743,323.93857 C 246.71593,323.93857 246.62363,324.85155 247.36453,359.77148 C 248.03873,391.54915 247.72983,395.68326 244.63473,396.30115 C 240.13783,397.19895 238.59413,387.11376 238.05503,353.31531 C 237.76523,335.14524 236.84153,327.38553 234.76333,325.66071 C 228.38863,320.37021 227.17443,327.13017 228.18733,362.27381 C 229.18293,396.81822 228.36883,401.12553 221.63153,396.9616 C 219.37973,395.56996 216.48563,355.74842 217.00423,333.29275 C 217.16213,326.45438 213.40513,323.04244 208.83043,325.86975 C 206.17993,327.50782 206.64863,361.13762 209.64693,384.46424 C 211.15103,396.16543 210.99703,396.78362 206.57853,396.78362 C 204.01993,396.78362 201.53433,395.57847 201.05493,394.1055 C 200.57553,392.63253 199.28333,377.61948 198.18333,360.74319 C 196.14133,329.41319 194.00573,322.38407 188.33103,328.3154 C 185.83873,330.92038 185.71923,336.68579 187.60943,363.13338 C 189.21483,385.59749 189.20763,395.49649 187.58453,397.11961 C 181.91213,402.79201 180.42883,396.09993 177.30033,350.71984 C 175.83113,329.40902 175.42893,328.22357 169.66927,328.22357 C 165.02507,328.22357 165.00657,328.38895 166.74737,354.46922 C 167.71087,368.90432 168.57857,384.57136 168.67567,389.28487 L 168.85227,397.85487 L 157.06847,398.11898 C 150.5875,398.26424 130.0999,398.9688 111.5405,399.68468 C 77.6106,400.9934 76.327,400.76829 77.6632,393.74283 C 77.8693,392.65959 76.3895,393.14165 74.3749,394.81409 C 72.3603,396.48652 68.6904,398.07761 66.2196,398.34986 C 63.7489,398.62208 58.3191,399.42646 54.1536,400.13735 C 49.988,400.84823 43.2391,400.54119 39.1561,399.455 C 31.8536,397.51242 31.7415,397.30909 32.2998,387.01221 C 33.0099,373.91244 51.0581,338.15464 67.0136,318.2357 C 69.998,314.50993 76.5061,305.74485 81.476,298.75774 C 91.4939,284.67375 107.2702,274.66103 119.4434,274.66103 C 123.2779,274.66103 129.503,273.12068 133.2768,271.23802 C 139.7145,268.02651 149.7118,267.88753 182.77843,270.54989 C 184.54603,270.69219 192.25903,269.66774 199.91853,268.27327 C 209.59913,266.51084 229.70463,266.14107 265.86733,267.06035 C 310.63393,268.19834 318.54473,267.92415 322.58473,265.09442 C 325.16683,263.2858 330.33263,261.80602 334.06423,261.80602 C 347.48573,261.80602 424.13523,257.35499 426.52083,260.992 C 427.66303,262.73323 438.97143,262.87585 467.73123,261.51177 C 526.10073,258.74329 609.14203,258.80277 615.56383,261.61767 C 625.77063,266.09162 639.04133,277.99643 662.34603,303.5848 C 687.08063,330.74315 699.42143,346.00785 701.91613,352.53012 C 702.74763,354.70416 705.35143,356.98588 707.70223,357.60063 C 710.05303,358.21538 711.98953,360.29313 712.00563,362.21785 C 712.02173,364.14257 712.60403,367.83986 713.29963,370.43404 C 714.29783,374.15709 713.05053,376.07362 707.37843,379.53166 C 703.42623,381.94116 697.59823,383.91621 694.42723,383.9206 C 691.25623,383.92501 687.97513,385.03956 687.13593,386.39742 C 685.15393,389.60444 702.01393,387.07869 710.35243,382.91943 C 715.83523,380.18459 716.08543,380.25407 714.10183,383.96047 C 712.93283,386.14477 711.96163,393.05696 711.94363,399.3209 C 711.92553,405.58485 711.05043,412.06896 709.99883,413.73006 C 708.77693,415.66031 709.33843,419.3747 711.55473,424.02238 C 713.95433,429.05437 714.38003,432.31316 712.93673,434.60137 C 710.61993,438.27422 696.33923,443.83634 689.09753,443.88639 C 686.53033,443.90413 683.05463,445.29395 681.37373,446.9749 C 677.42383,450.92479 665.81393,493.26163 637.85313,605.67754 C 628.73423,642.33998 627.64793,645.04067 619.36653,651.63715 C 608.63653,660.184 604.12273,660.51073 452.73373,663.69856 C 415.61483,664.48016 384.76283,665.36335 384.17363,665.66115 C 383.58443,665.95898 381.17413,665.48669 378.81743,664.61163 z M 461.30373,651.11612 C 461.30373,650.06096 459.29773,648.67309 456.84593,648.03194 C 453.77483,647.22883 452.71263,645.62574 453.43103,642.87839 C 454.72173,637.94295 450.79373,635.11872 448.24193,639.14744 C 447.21333,640.77139 446.35703,644.65598 446.33903,647.77988 C 446.30953,652.8891 447.05953,653.43835 453.80493,653.24714 C 457.92923,653.13024 461.30373,652.17128 461.30373,651.11612 z M 487.01373,650.67007 C 487.01373,648.88466 485.10923,647.45632 482.72873,647.45632 C 478.46033,647.45632 477.15583,649.73924 479.87203,652.45548 C 482.48143,655.0649 487.01373,653.93184 487.01373,650.67007 z M 536.51363,646.82171 C 533.76373,644.07183 530.97513,646.19717 533.01103,649.49122 C 533.79963,650.76721 535.42633,651.2046 536.62593,650.46319 C 538.08933,649.5588 538.05233,648.36041 536.51363,646.82171 z M 452.47693,626.50722 C 452.15553,622.05546 452.35743,617.47586 452.92563,616.33033 C 455.16883,611.80805 455.32143,568.18376 453.09403,568.18376 C 449.40013,568.18376 448.96003,570.44005 448.28783,592.82253 C 447.38563,622.85918 448.07903,634.60131 450.75503,634.60131 C 452.09793,634.60131 452.81723,631.22018 452.47693,626.50722 z M 547.83543,555.71641 C 548.43193,554.75126 546.07853,554.37863 542.60563,554.88833 C 539.13273,555.39806 536.29123,556.18772 536.29123,556.64317 C 536.29123,558.27571 546.77383,557.43418 547.83543,555.71641 z M 568.96443,553.90981 C 567.49143,553.31546 565.08113,553.31546 563.60813,553.90981 C 562.13513,554.50416 563.34033,554.99047 566.28623,554.99047 C 569.23223,554.99047 570.43733,554.50416 568.96443,553.90981 z M 624.13383,548.90124 C 624.13383,547.72287 623.70863,546.75874 623.18903,546.75874 C 622.66933,546.75874 621.64833,547.72287 620.92003,548.90124 C 620.19183,550.07962 620.61693,551.04374 621.86483,551.04374 C 623.11283,551.04374 624.13383,550.07962 624.13383,548.90124 z M 606.99383,536.04623 C 606.99383,534.86786 606.56863,533.90373 606.04903,533.90373 C 605.52933,533.90373 604.50833,534.86786 603.78003,536.04623 C 603.05173,537.22461 603.47693,538.18873 604.72483,538.18873 C 605.97273,538.18873 606.99383,537.22461 606.99383,536.04623 z M 560.73323,491.0537 C 561.06493,484.57263 562.04463,476.13653 562.91033,472.30681 C 563.83263,468.22631 563.64013,465.34368 562.44533,465.34368 C 559.77133,465.34368 558.09223,476.54542 556.82513,502.83746 C 555.94193,521.16264 556.10633,522.71254 557.96133,513.54996 C 559.15413,507.65808 560.40153,497.53476 560.73323,491.0537 z M 580.19733,441.80069 C 580.94793,440.58619 580.08793,440.22702 578.18133,440.95867 C 574.46963,442.38298 573.79053,443.91866 576.87233,443.91866 C 577.98113,443.91866 579.47743,442.96557 580.19733,441.80069 z M 557.71623,433.20615 C 557.71623,432.02778 556.80903,431.06365 555.70023,431.06365 C 554.59143,431.06365 553.08833,432.02778 552.36003,433.20615 C 551.63173,434.38453 552.53893,435.34865 554.37603,435.34865 C 556.21313,435.34865 557.71623,434.38453 557.71623,433.20615 z M 621.95673,415.09981 C 623.73653,409.70681 623.76113,406.51799 622.04743,403.31605 C 618.58323,396.84306 616.54543,397.8802 612.64113,408.10338 C 607.95513,420.37366 608.20333,422.49364 614.32643,422.49364 C 618.34423,422.49364 620.06763,420.82356 621.95673,415.09981 z M 153.18237,367.6341 C 152.4054,357.98999 147.6948,349.64859 143.0256,349.64859 C 137.9864,349.64859 137.2072,354.82819 140.9123,363.69605 C 147.6509,379.82364 154.33747,381.9697 153.18237,367.6341 z M 145.1365,319.89352 C 145.7832,318.84713 143.1887,317.51522 139.3711,316.93372 C 131.5719,315.74577 130.3024,316.21123 132.3418,319.51102 C 134.0494,322.27397 143.4908,322.55622 145.1365,319.89352 z M 239.55473,313.22606 C 240.28303,312.04768 239.91473,311.08356 238.73643,311.08356 C 237.55803,311.08356 235.99803,312.04768 235.26973,313.22606 C 234.54153,314.40443 234.90973,315.36856 236.08813,315.36856 C 237.26653,315.36856 238.82653,314.40443 239.55473,313.22606 z M 297.40673,313.99916 C 300.25343,312.90676 300.39723,312.26328 298.11763,310.81821 C 294.59273,308.58381 285.16403,308.41349 279.90193,310.48912 C 276.64583,311.77351 277.07223,312.27777 282.40483,313.44939 C 291.59543,315.46866 293.40443,315.53497 297.40673,313.99916 z M 354.17863,310.31204 C 354.17863,308.34229 350.20993,306.98842 341.93083,306.13395 C 328.23343,304.72026 326.65903,305.25042 330.56813,309.96052 C 334.14103,314.26556 354.17863,314.56388 354.17863,310.31204 z M 454.81343,309.73644 C 466.80673,307.85427 458.24703,305.14328 437.89553,304.37821 C 424.25103,303.86528 419.61033,304.39994 418.88753,306.56813 C 416.72613,313.05241 427.58303,314.00987 454.81343,309.73644 z M 590.92503,307.8698 C 590.92503,306.69143 587.30953,305.42808 582.89063,305.06233 C 575.51853,304.45219 571.58333,307.49298 577.28543,309.39368 C 582.02663,310.9741 590.92503,309.97993 590.92503,307.8698 z M 318.76723,658.07162 C 317.98223,656.80133 314.96243,654.85813 312.05673,653.75339 C 308.84033,652.53051 306.96553,650.27735 307.26423,647.99366 C 307.53403,645.93056 307.01983,639.77324 306.12143,634.31072 C 305.05603,627.83242 305.35653,622.75606 306.98573,619.71189 C 308.81843,616.2874 308.85123,614.28319 307.10903,612.18386 C 305.63753,610.41081 304.96993,601.70452 305.35343,589.28894 L 305.97233,569.25501 L 312.39983,569.25501 C 318.50323,569.25501 318.89593,569.7952 320.18693,579.96752 C 323.13213,603.17445 324.67883,657.60985 322.43243,658.99821 C 321.20163,659.75886 319.55233,659.34191 318.76723,658.07162 z M 241.31723,656.66168 C 231.87823,654.85562 231.19223,652.38859 228.92753,612.10504 C 228.26503,600.32128 227.14083,586.20061 226.42923,580.72575 C 225.27993,571.88219 225.64113,570.611 229.66703,569.33323 C 242.40083,565.29168 245.41103,573.66614 248.50673,621.7463 C 251.03143,660.95791 251.51423,658.6128 241.31723,656.66168 z M 289.90353,656.14744 C 283.19573,655.08084 282.33053,654.17407 281.70053,647.55089 C 281.20583,642.35022 282.12473,639.32154 284.78813,637.37401 C 288.40533,634.72909 288.39813,634.46828 284.63223,631.71459 C 281.87743,629.70021 281.43493,628.36406 283.16793,627.293 C 284.97293,626.1774 284.76903,624.87568 282.42123,622.5279 C 280.07493,620.18161 279.18303,614.50304 279.16183,601.77512 C 279.14573,592.1377 278.58873,582.22695 277.92423,579.75129 C 277.19933,577.05121 278.12963,573.83628 280.24893,571.71691 C 287.33773,564.62817 294.51083,568.70582 295.27893,580.26089 C 295.58153,584.81304 296.45413,594.32228 297.21803,601.39253 C 299.29513,620.61626 300.26973,656.0172 298.74133,656.72219 C 298.00483,657.06188 294.02783,656.80324 289.90353,656.14744 z M 338.10983,654.07783 C 332.32583,652.80499 331.74293,651.92855 332.28743,645.32273 C 332.62023,641.28538 333.93453,637.33812 335.20803,636.55105 C 336.78463,635.57664 336.66073,634.83244 334.81983,634.21881 C 332.81743,633.55133 332.05993,625.01046 331.89933,601.28631 L 331.68233,569.25501 L 338.10983,569.25501 L 344.53733,569.25501 L 345.93503,586.39502 C 348.52143,618.11315 348.91663,654.51912 346.67983,655.01616 C 345.50143,655.27801 341.64493,654.85575 338.10983,654.07783 z M 410.41933,650.22929 C 404.71323,649.13025 403.98873,643.90624 409.34803,642.5057 C 412.34093,641.72356 412.41433,641.47574 409.71153,641.27734 C 406.77423,641.06174 406.30573,636.1991 406.17463,604.56798 C 406.03483,570.84776 406.32963,567.94332 410.09603,565.92757 C 412.84833,564.45463 415.48323,564.45152 418.22343,565.91804 C 422.00723,567.94309 422.24063,570.70364 421.71643,607.23657 C 421.40743,628.76824 421.02893,647.59022 420.87543,649.06319 C 420.59363,651.76515 419.20013,651.92056 410.41933,650.22929 z M 278.06673,559.5279 C 277.22723,558.16949 275.73373,541.96605 274.74793,523.52025 C 273.76203,505.07446 272.35453,484.86982 271.61993,478.62104 C 270.73653,471.10591 271.15553,466.20998 272.85753,464.15915 C 276.40833,459.88079 285.06063,460.26698 287.39613,464.80805 C 288.45673,466.87021 290.04103,486.39376 290.91673,508.19371 C 291.79243,529.99366 292.64583,550.72237 292.81313,554.2575 C 293.08393,559.98018 292.37583,560.75697 286.35523,561.34138 C 282.63613,561.70239 278.90633,560.88631 278.06673,559.5279 z M 304.99353,558.65387 C 303.27213,556.57969 302.50863,547.17124 302.69003,530.26572 C 302.83923,516.35855 301.78413,496.71127 300.34543,486.60509 C 298.90673,476.49891 298.34883,466.61662 299.10563,464.64445 C 301.01293,459.674 312.81263,459.80117 314.28473,464.80805 C 314.89113,466.87021 316.04773,483.01932 316.85503,500.69495 C 318.92563,546.03102 319.14963,556.02709 318.16333,559.07812 C 316.97843,562.74382 308.15193,562.45948 304.99353,558.65387 z M 331.44253,557.0832 C 329.61513,554.12637 327.70643,517.10135 327.51403,480.87681 L 327.39733,458.91617 L 319.89863,458.85102 C 310.95403,458.77331 315.03203,455.43724 325.37773,454.3688 C 330.04173,453.88712 333.52343,455.21575 337.46763,458.98235 L 343.00723,464.27243 L 343.77233,511.40746 L 344.53733,558.5425 L 338.84783,559.20091 C 335.71853,559.56304 332.38613,558.61007 331.44253,557.0832 z M 434.77093,554.70416 C 431.19033,552.08592 430.89103,549.63505 431.94883,531.59141 C 432.59963,520.49023 433.35583,509.96127 433.62923,508.19371 C 433.90253,506.42615 433.97433,494.13354 433.78873,480.87681 L 433.45113,456.77367 L 428.09493,456.77367 C 425.14893,456.77367 422.73863,455.82791 422.73863,454.67198 C 422.73863,450.92314 432.16723,450.23715 440.94993,453.347 L 449.51993,456.38153 L 449.77623,496.74949 C 450.08943,546.08295 448.96533,556.16582 443.05773,557.01648 C 440.70293,557.35555 436.97393,556.315 434.77093,554.70416 z M 365.51523,455.9725 C 366.37893,453.38151 385.73563,452.39446 391.62983,454.64087 C 395.29433,456.03751 394.80833,456.48649 388.45863,457.57092 C 377.88283,459.37711 364.68683,458.45778 365.51523,455.9725 z "
       id="path3072" />
    <g
       transform="translate(-1522.859,-68.39586)"
       id="g4839">
      <path
         id="path3060"
         d="M 1880.5318,513.55726 C 1876.7755,510.81055 1876.6444,509.66982 1879.0511,500.6715 C 1880.5033,495.24174 1881.6915,488.88481 1881.6915,486.54496 C 1881.6915,479.53969 1887.6569,481.69303 1889.1959,489.25383 C 1889.9754,493.08355 1891.724,499.43922 1893.0817,503.37755 C 1895.2448,509.65244 1895.0399,510.91118 1891.4251,513.55443 C 1886.3137,517.29192 1885.6395,517.29211 1880.5318,513.55726 z M 1889.1595,346.91872 C 1885.815,372.91279 1870.911,375.61178 1857.6537,365.35608 L 1889.6747,104.33477 L 1914.1212,152.90728 L 1889.1595,346.91872 z "
         style="fill:#524e54;stroke:#cf0000;stroke-opacity:1"
         sodipodi:nodetypes="cssssscccccs" />
      <path
         id="path3963"
         d="M 1911.6738,465.50021 L 1876.7045,468.35171 L 1912.066,156.86742 L 1889.6761,98.229396 L 1938.3673,106.97139 L 1959.0627,158.57354 L 1911.6738,465.50021 z "
         style="fill:#524e54;stroke:#cf0000;stroke-opacity:1"
         sodipodi:nodetypes="ccccccc" />
    </g>
    <path
       sodipodi:nodetypes="cssssccsssccsssccssssssccssssssssssccsssccssscccssccscccccssccssssssssssccssssssssccsssssssccsssccssssssssccssssccssccssccsssccsssccsssccsssssssccsssccsssssccsssccssccsssssccsssssssccssssccssccccsssccsssssccsssccssccsssccssccsssssssccssssssccsssssssssssccsssssssccssssssssccsssssccssssssssccsssssssccsssssccsssssssssccssssssccsssssssccsssssccsssssccssssssccsssssccssssssssccsssssccssssc"
       style="fill:#2a70cf"
       d="M 165.02085,649.33337 C 164.14025,633.97267 164.42045,624.16127 165.73985,624.16017 C 166.50505,624.15957 167.64785,628.25657 168.27965,633.26467 C 168.91135,638.27277 170.08195,645.50367 170.88105,649.33337 C 172.04505,654.91247 171.64675,656.29647 168.87695,656.29647 C 166.48705,656.29647 165.29675,654.14727 165.02085,649.33337 z M 138.8717,643.04347 C 135.6913,622.21257 134.9399,616.12617 134.8805,610.71617 C 134.8155,604.80057 136.6263,601.07867 138.6061,603.05837 C 139.7513,604.20357 144.5643,635.06107 144.8723,643.23237 C 145.1767,651.31027 140.1095,651.15077 138.8717,643.04347 z M 462.15646,645.58397 C 461.42816,644.40567 461.85336,643.44147 463.10126,643.44147 C 464.34916,643.44147 465.37026,644.40567 465.37026,645.58397 C 465.37026,646.76237 464.94506,647.72647 464.42546,647.72647 C 463.90576,647.72647 462.88476,646.76237 462.15646,645.58397 z M 509.02536,645.19097 C 508.05376,643.63957 507.36286,625.11717 507.49006,604.03007 C 507.69726,569.65967 508.11556,565.46917 511.52976,563.55847 C 516.57106,560.73717 521.61476,567.36157 520.11926,574.83977 C 519.52556,577.80867 518.52676,586.98657 517.89976,595.23527 C 517.27276,603.48387 516.21586,615.53547 515.55126,622.01647 C 514.88646,628.49757 514.08836,636.45317 513.77766,639.69557 C 513.08396,646.93237 511.36256,648.92297 509.02536,645.19097 z M 556.42655,643.38717 C 552.41715,641.86367 552.38985,641.65777 556.00145,640.18607 C 559.04795,638.94467 559.56025,637.20297 558.43225,631.92177 C 557.64615,628.24137 556.10335,624.11087 555.00385,622.74287 C 553.74345,621.17467 553.84795,619.73437 555.28665,618.84517 C 556.60425,618.03077 557.34035,611.83927 557.02855,604.19257 C 556.73155,596.90927 556.71565,584.50737 556.99315,576.63267 C 557.43125,564.20287 558.09115,562.12687 561.99845,560.88677 C 564.47385,560.10107 567.31575,560.27717 568.31375,561.27797 C 569.31175,562.27887 569.27915,572.73897 568.24135,584.52267 C 567.20355,596.30647 565.71835,613.66077 564.94105,623.08777 C 563.28605,643.15717 562.25985,645.60377 556.42655,643.38717 z M 214.69755,641.29897 C 214.69755,640.12067 216.14375,639.15647 217.91125,639.15647 C 219.67885,639.15647 221.12505,640.12067 221.12505,641.29897 C 221.12505,642.47737 219.67885,643.44147 217.91125,643.44147 C 216.14375,643.44147 214.69755,642.47737 214.69755,641.29897 z M 534.86386,639.59027 C 535.62466,637.19327 535.19696,634.58307 533.91336,633.78977 C 532.50276,632.91797 532.33186,631.36367 533.48136,629.86017 C 535.40116,627.34897 535.54606,618.16507 533.72506,614.40957 C 533.18256,613.29067 532.76576,601.28777 532.79886,587.73647 L 532.85906,563.09767 L 538.21526,563.09767 C 543.52775,563.09767 543.56705,563.23777 543.02575,580.23767 C 541.80246,618.65097 539.32976,642.01087 536.38356,642.98687 C 534.31356,643.67257 533.87746,642.69807 534.86386,639.59027 z M 576.13635,641.95717 C 575.55975,641.00597 576.00235,634.44297 577.11985,627.37277 C 578.23745,620.30247 579.82335,602.46617 580.64415,587.73647 L 582.13655,560.95517 L 588.26905,560.25407 L 594.40145,559.55287 L 592.87675,578.46527 C 592.03815,588.86717 590.24265,607.50107 588.88675,619.87397 C 586.64085,640.36907 586.01075,642.42877 581.80315,643.02837 C 579.26295,643.39037 576.71295,642.90837 576.13635,641.95717 z M 291.01345,638.18787 C 291.67005,636.47667 291.46985,633.88347 290.56845,632.42497 C 289.66705,630.96657 288.77015,626.00997 288.57515,621.41027 C 288.38025,616.81057 287.20245,612.41397 285.95785,611.63997 C 283.23865,609.94887 281.59825,583.50277 283.97695,579.70207 C 284.92295,578.19037 284.66475,577.02397 283.38405,577.02397 C 282.13615,577.02397 281.11505,576.05987 281.11505,574.88147 C 281.11505,573.70307 282.51755,572.73897 284.23175,572.73897 C 286.17625,572.73897 287.83225,575.76077 288.63485,580.77337 C 289.34235,585.19227 290.39615,590.73597 290.97655,593.09277 C 293.31435,602.58547 294.13665,641.29897 292.00045,641.29897 C 290.80095,641.29897 290.35685,639.89897 291.01345,638.18787 z M 599.57915,638.10117 C 598.86605,636.24277 599.14465,630.17627 600.19835,624.61997 C 601.25205,619.06377 603.26465,603.48517 604.67075,590.00097 C 606.07685,576.51667 607.71085,564.22407 608.30175,562.68407 C 609.80905,558.75627 615.34535,559.18077 615.34535,563.22417 C 615.34535,565.06127 616.30945,565.96847 617.48785,565.24017 C 621.16805,562.96567 619.82615,566.76027 615.88095,569.78387 C 612.85515,572.10297 612.68475,573.02237 614.99805,574.54797 C 617.36285,576.10757 617.41175,580.14627 615.27745,597.62057 C 611.57595,627.92617 603.58345,648.53617 599.57915,638.10117 z M 437.27426,634.87147 C 437.10426,631.92557 436.66946,627.10497 436.30796,624.15897 C 435.94656,621.21307 435.16526,609.64357 434.57176,598.44897 C 433.97816,587.25437 433.19306,576.16697 432.82706,573.81017 C 432.31136,570.49037 433.36796,569.52517 437.51766,569.52517 C 442.41636,569.52517 442.83396,570.25737 442.40576,578.09517 C 442.14836,582.80867 441.79346,597.39787 441.61716,610.51567 C 441.44096,623.63337 440.46116,635.68497 439.44006,637.29687 C 438.08656,639.43347 437.49956,638.77607 437.27426,634.87147 z M 461.48696,634.73757 C 462.00246,633.19097 463.68966,631.50377 465.23636,630.98817 C 466.84316,630.45257 467.64666,631.25607 467.11106,632.86287 C 466.59546,634.40957 464.90826,636.09677 463.36166,636.61227 C 461.75476,637.14787 460.95136,636.34447 461.48696,634.73757 z M 486.60046,635.94277 C 485.72736,631.14067 486.31796,622.37947 487.66136,620.20587 C 488.56626,618.74177 488.26786,616.29217 486.99826,614.76237 C 485.72866,613.23257 485.30096,611.36987 486.04786,610.62297 C 486.79476,609.87607 486.27356,607.90067 484.88956,606.23307 C 480.91256,601.44107 482.32406,566.84137 486.56286,565.21477 C 490.87646,563.55947 495.56526,569.96267 494.28726,575.76347 C 493.74506,578.22427 492.85046,592.77137 492.29916,608.09027 C 491.74796,623.40907 491.24816,636.18377 491.18856,636.47837 C 490.98226,637.49837 486.79446,637.00947 486.60046,635.94277 z M 190.00155,630.76677 C 190.71805,628.50917 190.30095,626.04197 189.07465,625.28407 C 185.76385,623.23787 186.37575,619.87397 190.05875,619.87397 C 192.30325,619.87397 193.27255,622.13557 193.27255,627.37277 C 193.27255,631.49707 192.24345,634.87147 190.98565,634.87147 C 189.70725,634.87147 189.27325,633.06137 190.00155,630.76677 z M 213.64785,630.55157 C 214.38805,629.35397 215.89115,628.92877 216.98805,629.60677 C 219.95985,631.44337 219.40565,632.72897 215.64235,632.72897 C 213.80525,632.72897 212.90775,631.74917 213.64785,630.55157 z M 236.61355,630.18477 C 237.93775,626.21207 242.55005,625.55317 242.55005,629.33667 C 242.55005,631.20247 241.02355,632.72897 239.15775,632.72897 C 237.29195,632.72897 236.14705,631.58407 236.61355,630.18477 z M 315.73795,629.40817 C 315.54945,626.99247 314.34695,623.96787 313.06595,622.68677 C 311.38865,621.00957 311.42855,619.93007 313.20845,618.82997 C 316.91065,616.54197 317.93635,618.67487 316.96035,626.63117 C 316.47665,630.57417 315.92655,631.82377 315.73795,629.40817 z M 338.96265,625.23027 C 338.96265,622.28427 339.92675,619.87397 341.10515,619.87397 C 342.28345,619.87397 343.24765,622.28427 343.24765,625.23027 C 343.24765,628.17617 342.28345,630.58647 341.10515,630.58647 C 339.92675,630.58647 338.96265,628.17617 338.96265,625.23027 z M 412.87896,626.30147 C 413.60726,625.12317 414.62826,624.15897 415.14786,624.15897 C 415.66756,624.15897 416.09266,625.12317 416.09266,626.30147 C 416.09266,627.47987 415.07166,628.44397 413.82376,628.44397 C 412.57586,628.44397 412.15066,627.47987 412.87896,626.30147 z M 462.68506,627.02377 C 462.12066,626.03737 461.85686,621.37377 462.09886,616.66027 C 462.34096,611.94677 461.63996,606.91907 460.54116,605.48757 C 459.44236,604.05607 458.95996,596.13967 459.46926,587.89537 C 459.99546,579.37597 459.46466,571.97537 458.23936,570.75017 C 456.79346,569.30417 457.30716,568.12497 459.79976,567.16847 C 461.84356,566.38417 464.44896,566.67567 465.58956,567.81627 C 468.28946,570.51617 468.44936,624.07937 465.76546,626.76327 C 464.63566,627.89307 463.24956,628.01027 462.68506,627.02377 z M 213.62625,622.01647 C 212.89795,620.83807 213.32315,619.87397 214.57105,619.87397 C 215.81895,619.87397 216.84005,620.83807 216.84005,622.01647 C 216.84005,623.19487 216.41485,624.15897 215.89525,624.15897 C 215.37555,624.15897 214.35455,623.19487 213.62625,622.01647 z M 234.93685,619.10957 C 234.19785,616.16497 234.20805,611.81817 234.95965,609.45017 C 235.71125,607.08207 235.40705,603.39697 234.28355,601.26107 C 231.44775,595.86977 227.21485,574.50497 228.69025,573.02957 C 231.52595,570.19387 237.26065,577.03887 238.59435,584.85137 C 241.44835,601.56997 241.60375,622.65457 238.87965,623.58027 C 237.45015,624.06597 235.67585,622.05417 234.93685,619.10957 z M 263.97505,618.80277 C 263.97505,617.03517 264.93915,615.58897 266.11755,615.58897 C 267.29595,615.58897 268.26005,617.03517 268.26005,618.80277 C 268.26005,620.57027 267.29595,622.01647 266.11755,622.01647 C 264.93915,622.01647 263.97505,620.57027 263.97505,618.80277 z M 412.76356,619.68727 C 411.97186,618.40627 412.39696,616.28517 413.70836,614.97377 C 415.45916,613.22307 416.09266,613.84197 416.09266,617.30297 C 416.09266,622.47607 414.97976,623.27317 412.76356,619.68727 z M 182.64535,612.47807 C 181.22535,610.76707 180.65495,607.50347 181.37795,605.22577 C 182.63395,601.26817 180.50275,588.71597 177.22925,580.79137 C 176.19405,578.28527 176.84995,576.61417 179.22685,575.70207 C 184.47445,573.68837 188.81735,580.88877 189.06995,592.02147 C 189.19025,597.32417 190.05165,603.59097 190.98415,605.94777 C 194.29305,614.31067 188.15535,619.11727 182.64535,612.47807 z M 209.68105,613.07967 C 206.76045,611.44527 205.96135,608.74307 206.38095,601.92057 C 206.68545,596.96917 206.26775,591.83917 205.45285,590.52057 C 204.63785,589.20197 204.52205,586.68747 205.19535,584.93277 C 205.86875,583.17807 205.38975,581.10587 204.13105,580.32797 C 200.42445,578.03717 201.50785,574.88147 206.00105,574.88147 C 211.10925,574.88147 212.74765,577.34837 213.53495,586.22497 C 213.86985,590.00227 214.84295,597.55837 215.69725,603.01627 C 217.37475,613.73277 215.73855,616.46967 209.68105,613.07967 z M 336.95165,611.54967 C 335.76265,609.32797 334.30275,599.13787 333.70755,588.90497 C 332.72985,572.09757 332.98325,570.36847 336.32955,571.01237 C 338.36695,571.40437 340.13455,573.69947 340.25755,576.11267 C 340.38065,578.52587 341.16995,588.39527 342.01175,598.04467 C 343.54365,615.60627 341.72305,620.46517 336.95165,611.54967 z M 160.43005,605.94777 C 159.45315,601.23427 156.78026,593.10887 154.49028,587.89147 C 150.1947,578.10437 151.4477,573.17207 157.62726,575.54347 C 161.37385,576.98117 163.89335,591.00257 162.89795,604.87647 L 162.20625,614.51777 L 160.43005,605.94777 z M 260.48335,611.80677 C 259.15205,610.94107 257.39105,604.38627 256.56985,597.24067 C 255.36735,586.77657 255.72915,583.70717 258.42935,581.46617 C 262.26875,578.27977 262.12285,577.99867 265.82375,595.72287 C 268.85685,610.24867 266.94445,616.00857 260.48335,611.80677 z M 310.83665,612.91087 C 310.68625,612.61627 310.30865,610.44697 309.99765,608.09027 C 309.68655,605.73347 308.73765,598.86707 307.88895,592.83157 C 306.80895,585.15087 307.11675,581.38157 308.91465,580.27047 C 313.18035,577.63407 314.88985,581.62727 316.46765,597.91337 C 317.76995,611.35617 317.51075,613.44647 314.54125,613.44647 C 312.65415,613.44647 310.98705,613.20547 310.83665,612.91087 z M 411.94036,608.25017 C 410.42285,606.42157 408.86455,599.61547 408.47765,593.12537 C 407.90265,583.48327 408.48215,580.94617 411.64636,579.25287 C 415.15836,577.37327 415.62646,578.51847 416.67766,591.56407 C 417.98946,607.84207 416.36126,613.57697 411.94036,608.25017 z M 128.1839,585.27597 C 127.4235,581.47387 127.6256,577.53877 128.6329,576.53147 C 131.3543,573.81007 135.8606,580.34577 135.0538,585.84387 C 133.9617,593.28557 129.7157,592.93457 128.1839,585.27597 z M 308.00945,575.06447 C 307.31965,573.94827 307.66845,572.47067 308.78465,571.78077 C 309.90075,571.09097 311.37845,571.43977 312.06825,572.55597 C 312.75805,573.67217 312.40925,575.14977 311.29305,575.83957 C 310.17695,576.52947 308.69925,576.18067 308.00945,575.06447 z M 408.95105,573.45307 C 406.23475,570.73687 407.53935,568.45397 411.80766,568.45397 C 414.18826,568.45397 416.09266,569.88227 416.09266,571.66767 C 416.09266,574.92947 411.56046,576.06257 408.95105,573.45307 z M 125.2721,559.34827 C 124.1129,557.87537 122.5056,552.81367 121.7002,548.10017 C 117.0069,520.63277 115.6788,512.25827 113.7153,497.75137 C 110.1271,471.24207 110.2274,468.82757 114.917,468.82757 C 119.5217,468.82757 121.7716,474.90707 123.6389,492.39517 C 125.8531,513.13127 127.2193,522.45347 128.9769,528.81767 C 129.9531,532.35277 131.3065,541.27097 131.9843,548.63577 C 132.9484,559.11147 132.5814,562.02647 130.2982,562.02647 C 128.693,562.02647 126.4312,560.82127 125.2721,559.34827 z M 148.4605,553.99207 C 147.2906,549.57317 145.335,536.79847 144.1148,525.60387 C 142.8947,514.40937 140.4802,497.54537 138.7494,488.12847 C 135.5218,470.56807 136.3494,466.79497 143.1419,468.10307 C 146.3867,468.72797 147.4726,472.56677 149.714,491.33587 C 151.1907,503.70227 153.95278,523.68077 155.85198,535.73257 C 157.75116,547.78437 158.69576,558.63077 157.95106,559.83567 C 155.06778,564.50097 150.4979,561.68707 148.4605,553.99207 z M 175.03145,557.69317 C 174.28675,556.48827 173.92205,550.89347 174.22105,545.26027 C 174.52005,539.62707 174.07875,533.90847 173.24055,532.55207 C 172.40225,531.19567 172.27795,527.84837 172.96435,525.11357 C 173.69115,522.21787 172.39595,516.13677 169.86325,510.55317 C 167.47125,505.27977 165.49295,497.41247 165.46705,493.07027 C 165.44115,488.72807 164.48295,482.71057 163.33765,479.69817 C 162.19225,476.68577 161.81335,472.76647 162.49555,470.98867 C 164.22105,466.49227 173.43495,466.87827 174.83815,471.50577 C 176.47895,476.91677 180.60695,519.98577 180.27655,528.24777 C 180.12265,532.09637 181.05555,538.61327 182.34965,542.72977 C 185.97795,554.27167 185.38715,559.88397 180.54395,559.88397 C 178.25675,559.88397 175.77605,558.89807 175.03145,557.69317 z M 202.09745,553.97537 C 200.47015,550.74397 197.89425,538.45897 196.37325,526.67517 C 194.85215,514.89137 192.51995,497.15147 191.19055,487.25307 C 188.59665,467.94087 190.09625,462.45317 196.51245,467.77807 C 202.24985,472.53967 204.13335,477.79987 202.05665,483.26197 C 200.80825,486.54547 200.97465,489.80777 202.52825,492.50787 C 203.84855,494.80267 205.58805,503.42907 206.39365,511.67767 C 211.18515,560.73517 211.15595,559.88457 208.04875,559.86727 C 206.40285,559.85807 203.72485,557.20667 202.09745,553.97537 z M 227.55255,552.51167 C 227.55255,548.45687 226.72365,544.62707 225.71055,544.00097 C 223.74105,542.78367 220.91475,510.37067 221.17605,491.99777 C 221.26295,485.88737 220.17075,479.02517 218.74895,476.74847 C 217.32705,474.47177 216.76775,471.03507 217.50585,469.11147 C 218.90215,465.47277 226.47805,464.28437 228.40465,467.40177 C 229.01235,468.38507 230.54455,482.60597 231.80945,499.00367 C 233.07435,515.40137 234.69175,535.80757 235.40375,544.35077 C 236.64015,559.18587 236.49285,559.88397 232.12545,559.88397 C 228.34255,559.88397 227.55255,558.61027 227.55255,552.51167 z M 252.69675,549.15677 C 250.57575,544.26107 248.97755,535.21447 248.97755,528.10467 C 248.97755,521.24757 247.52215,505.26907 245.74325,492.59677 C 243.96435,479.92447 243.05715,468.66917 243.72715,467.58507 C 245.87415,464.11117 255.05395,465.41197 256.27545,469.36327 C 257.35125,472.84307 261.76525,538.60717 261.81185,551.84957 C 261.84225,560.50037 256.99015,559.06697 252.69675,549.15677 z M 279.22695,548.22267 C 277.90865,542.98737 276.83005,532.44477 276.83005,524.79467 C 276.83005,517.14457 275.85405,508.31837 274.66125,505.18087 C 273.17555,501.27317 273.21955,496.77577 274.80095,490.90267 C 276.70155,483.84467 276.51675,481.67377 273.75615,478.62337 C 268.95155,473.31437 269.61315,468.80387 275.59615,466.07777 C 279.48015,464.30817 281.29785,464.35647 282.80505,466.26957 C 283.91355,467.67647 285.45665,488.83327 286.23415,513.28457 C 287.42465,550.72087 287.17225,557.74147 284.63585,557.74147 C 282.85975,557.74147 280.64025,553.83557 279.22695,548.22267 z M 305.45325,549.70707 C 304.41205,545.28817 304.15855,533.95967 304.88995,524.53267 C 305.82705,512.45387 305.37305,505.29007 303.35225,500.27207 C 301.77505,496.35577 299.85195,486.97557 299.07855,479.42717 C 297.88965,467.82237 298.21795,465.49357 301.20485,464.34747 C 309.34825,461.22257 311.10755,466.88767 311.16125,496.40687 C 311.18935,511.87607 312.05805,528.17537 313.09175,532.62757 C 315.43625,542.72567 313.59805,557.74147 310.01735,557.74147 C 308.54825,557.74147 306.49445,554.12597 305.45325,549.70707 z M 332.23095,549.70707 C 330.94355,546.46657 329.62055,535.13807 329.29085,524.53267 C 328.96125,513.92727 328.00155,495.99477 327.15815,484.68267 C 325.82705,466.83027 326.08075,463.94007 329.07985,462.78917 C 335.43885,460.34907 338.42455,463.52097 339.42365,473.77817 C 340.23585,482.11677 340.08345,538.88297 339.21405,551.84957 C 338.83195,557.54767 334.86185,556.32957 332.23095,549.70707 z M 410.76315,553.49977 C 406.73315,546.97907 405.64615,536.69277 407.56055,523.19447 C 409.02575,512.86377 408.92595,507.04317 407.21965,503.29817 C 405.43045,499.37137 405.43415,495.51687 407.23385,488.36947 C 408.92225,481.66437 408.99525,476.98587 407.47405,472.98477 C 404.93415,466.30417 407.81045,461.32887 414.21256,461.32887 C 417.72536,461.32887 418.26736,463.16167 418.48886,475.79077 C 418.62846,483.74477 418.52526,491.21677 418.25956,492.39517 C 417.99386,493.57347 417.63866,507.95537 417.47016,524.35477 C 417.26016,544.80387 416.38426,554.43147 414.68216,554.99847 C 413.31716,555.45317 411.55366,554.77867 410.76315,553.49977 z M 434.31816,551.33687 C 432.64306,548.62657 432.53406,522.64947 434.17546,517.35987 C 434.77956,515.41307 434.48926,503.21477 433.53016,490.25267 C 432.55596,477.08507 432.61156,465.03057 433.65626,462.93577 C 435.83826,458.56007 443.59176,457.91467 445.15136,461.97897 C 445.74076,463.51487 445.46946,484.47337 444.54846,508.55327 C 443.08606,546.78867 442.42426,552.42107 439.32436,553.01437 C 437.37206,553.38797 435.11926,552.63307 434.31816,551.33687 z M 461.12786,548.21227 C 459.87606,544.91977 458.87686,540.17327 458.90746,537.66437 C 459.51906,487.50177 460.40256,461.29737 461.51986,460.18007 C 462.28156,459.41827 464.92826,459.43727 467.40146,460.22227 C 471.28766,461.45567 471.88636,463.30007 471.81176,473.80857 C 471.76426,480.49607 471.77676,487.41387 471.83946,489.18137 C 471.90216,490.94897 471.45396,504.87667 470.84356,520.13197 C 470.02546,540.57737 468.90166,548.70077 466.56876,551.03367 C 463.77716,553.82517 463.13536,553.49237 461.12786,548.21227 z M 486.08106,552.02807 C 483.95266,549.89967 484.56706,520.50197 487.14836,500.96517 C 488.39386,491.53817 489.54706,478.04037 489.71096,470.97007 C 489.97976,459.37677 490.48206,458.04787 494.82966,457.43047 C 499.35566,456.78767 499.64976,457.50767 499.64266,469.21417 C 499.62506,498.08357 495.21236,550.08537 492.64156,551.71847 C 489.38036,553.79017 487.91246,553.85947 486.08106,552.02807 z M 512.68796,548.32027 C 509.80456,544.84607 509.41456,535.89377 511.09146,511.67767 C 511.82586,501.07227 512.44446,484.95707 512.46596,475.86607 C 512.49856,462.15397 513.16396,458.98457 516.37006,457.26877 C 522.97136,453.73587 524.97756,457.48887 525.41926,474.19737 C 525.72296,485.68637 522.40856,543.31017 521.15086,548.40657 C 520.64336,550.46337 514.41376,550.39987 512.68796,548.32027 z M 534.95346,546.52907 C 534.25456,543.74437 534.70256,531.52807 535.94906,519.38167 C 537.19546,507.23527 538.21526,492.57887 538.21526,486.81187 C 538.21526,478.91977 539.01016,476.32637 541.42906,476.32637 C 543.65135,476.32637 544.64275,474.09397 544.64275,469.08997 C 544.64275,462.17207 549.68355,454.94297 552.52565,457.78507 C 553.99615,459.25557 549.27115,531.96517 546.96925,543.28787 C 545.16185,552.17847 536.92876,554.39927 534.95346,546.52907 z M 560.33735,545.75507 C 559.61625,543.87607 560.10345,533.02967 561.41985,521.65197 C 562.73635,510.27417 564.44515,491.32387 565.21725,479.54007 C 566.67515,457.28927 568.27435,452.75887 574.67095,452.75887 C 576.75735,452.75887 578.91405,453.96397 579.46375,455.43697 C 580.53165,458.29877 573.21715,541.99487 571.50605,546.49327 C 570.04355,550.33787 561.88905,549.79887 560.33735,545.75507 z M 585.35035,537.26517 C 585.35035,531.89507 586.32665,523.45897 587.52005,518.51827 C 588.71335,513.57757 590.40065,497.58527 591.26945,482.97987 C 592.56235,461.24487 593.52235,456.00127 596.55825,454.09247 C 599.37165,452.32347 601.01035,452.52757 603.34345,454.93767 C 605.97345,457.65437 606.01645,460.60047 603.64025,475.25507 C 602.11155,484.68207 601.29095,493.12887 601.81665,494.02567 C 602.76335,495.64077 599.06275,532.92837 597.03465,542.20827 C 596.28715,545.62897 594.43755,547.02897 590.66575,547.02897 C 585.78445,547.02897 585.35035,546.23147 585.35035,537.26517 z M 614.29595,534.70957 C 615.16475,529.11227 616.06905,511.99907 616.30555,496.68017 C 616.74795,468.02107 619.97115,452.75887 625.58115,452.75887 C 627.60395,452.75887 628.33965,454.95307 627.92605,459.75287 C 627.59465,463.59947 628.03495,467.89797 628.90455,469.30487 C 631.39875,473.34067 623.37365,533.27957 619.28705,541.13707 C 615.36335,548.68147 612.66635,545.20827 614.29595,534.70957 z M 668.90785,453.98717 C 668.90785,452.30607 667.22065,450.48957 665.15855,449.95077 C 662.33705,449.21337 662.60215,448.90937 666.22975,448.72237 C 669.70485,448.54317 671.05035,449.66987 671.05035,452.75887 C 671.05035,455.11557 670.56835,457.04387 669.97915,457.04387 C 669.38995,457.04387 668.90785,455.66837 668.90785,453.98717 z "
       id="path3064" />
  </g>
</svg>
